<svg id="Layer_1" data-name="Layer 1" xmlns="http://www.w3.org/2000/svg" viewBox="0 0 180 180"><defs><style>.cls-1{fill:#333332;}.cls-2{fill:#2e6db6;}.cls-3{fill:#fff;}.cls-4{fill:none;stroke:#fff;stroke-linecap:round;stroke-miterlimit:10;stroke-dasharray:8;}</style></defs><path class="cls-1" d="M56.92,106.87A28.57,28.57,0,0,1,52.77,50V39.66a38.86,38.86,0,1,0,30.44,67.23L77.1,98.5A28.46,28.46,0,0,1,56.92,106.87Z"/><path class="cls-2" d="M76.86,90.47A28.9,28.9,0,0,0,88.33,85a24.07,24.07,0,0,0,6.93-8.9,27,27,0,0,0,2.31-11.21,24.6,24.6,0,0,0-3.5-13.18,23.08,23.08,0,0,0-10.42-8.84Q76.74,39.7,66.71,39.7H52.78V50H66.44q9.11,0,13.78,4t4.69,11.47q0,7.78-5.08,12.07t-15,4.28H52.78v10H63.67l24.66,33.36h14v-.79Z"/><path class="cls-2" d="M65.33,85.49c0,5.6-10.15,18.08-10.15,18.08S45,91.09,45,85.49a10.15,10.15,0,1,1,20.29,0Z"/><path class="cls-3" d="M61.43,81l-6.66,2.85a2.76,2.76,0,0,0-2.17,1.75l-4.2,5.9a.45.45,0,0,0,.54.67l6.66-2.84a2.79,2.79,0,0,0,2.17-1.75L62,81.65a.45.45,0,0,0-.53-.67Zm-8.94,6.27A2.78,2.78,0,0,0,54,89.05L50,90.72ZM55,88.45a1.9,1.9,0,1,1,2.09-1.68A1.89,1.89,0,0,1,55,88.45Zm2.89-2.56a2.78,2.78,0,0,0-1.45-1.81l3.91-1.66Z"/><path class="cls-4" d="M52.82,44.61c-3,.55-15.33,3.19-23,14.36-8,11.61-9.48,29.11.68,41.62s29.1,16.15,44.19,7.59"/><path class="cls-1" d="M111.84,137.34h-1.2v.5a2.88,2.88,0,0,1-.65,2,2.22,2.22,0,0,1-1.74.72h-3.07a2.25,2.25,0,0,1-1.76-.73,2.86,2.86,0,0,1-.67-2,31.4,31.4,0,0,1,.37-3.68l.55.11c-.12.94-.2,1.66-.25,2.14s-.08.87-.08,1.18a2.77,2.77,0,0,0,.48,1.74,1.62,1.62,0,0,0,1.4.62h3a1.69,1.69,0,0,0,1.43-.61,2.88,2.88,0,0,0,.47-1.76v-.23h-1.69a1.83,1.83,0,0,1-1.11-.3,1.67,1.67,0,0,1-.57-1,7.83,7.83,0,0,1-.18-1.91,8.54,8.54,0,0,1,.2-2,2.23,2.23,0,0,1,.67-1.22,2.05,2.05,0,0,1,1.38-.42l.8,0,.88.08.18,0v6.05h1.2Zm-4.59-1.68a1.47,1.47,0,0,0,.48.81,1.53,1.53,0,0,0,.91.24h1.44v-5.49l-.23,0c-.57-.06-.89-.08-.95-.08a1.46,1.46,0,0,0-1.41.72,5,5,0,0,0-.39,2.28A6.25,6.25,0,0,0,107.25,135.66Zm.67-7.31h.7v.9h-.7Zm1.24,0h.7v.9h-.7Z"/><path class="cls-1" d="M115.25,136.71v.63h-3.41v-.63h1.34v-9.27h.57v9.27Z"/><path class="cls-1" d="M123.62,136.71v.63h-8.37v-.63h1.07v-9.27h.58v6.43c1-2.32,2.06-3.49,3.25-3.49a2.16,2.16,0,0,1,1,.28,2.3,2.3,0,0,1,.95,1.05,4.92,4.92,0,0,1,.41,2.21v2.79Zm-5.1-4.84a6.9,6.9,0,0,0-1.17,2.07,6.11,6.11,0,0,0-.45,2.1v.67H122v-3a3.56,3.56,0,0,0-.32-1.64,1.93,1.93,0,0,0-.75-.85,1.72,1.72,0,0,0-.85-.24A2,2,0,0,0,118.52,131.87Z"/><path class="cls-1" d="M125.82,130.52v6.82h-2.2v-.63h1.63v-6.19Zm-.59-2.14h.6v.87h-.6Z"/><path class="cls-1" d="M127.78,127.44h.57v9.9h-.57Z"/><path class="cls-1" d="M133,130.34c.39,0,.7.1.95.15v6.15a12.28,12.28,0,0,1-.2,2.5,2.35,2.35,0,0,1-.57,1.24,1.4,1.4,0,0,1-1,.34,10.59,10.59,0,0,1-1.54-.18v-.61a9.12,9.12,0,0,0,1.52.16,1.11,1.11,0,0,0,.65-.18,1.27,1.27,0,0,0,.41-.77,7.34,7.34,0,0,0,.16-1.8h-1.75a1.45,1.45,0,0,1-1.18-.5,2.67,2.67,0,0,1-.53-1.27,12.25,12.25,0,0,1-.12-1.86,7.93,7.93,0,0,1,.17-1.82,2.18,2.18,0,0,1,.66-1.19,2.11,2.11,0,0,1,1.43-.44A7.91,7.91,0,0,1,133,130.34Zm-2.32,5.6a1.21,1.21,0,0,0,1.24.77h1.46V131a8.84,8.84,0,0,0-1.14-.11,1.69,1.69,0,0,0-1.18.38,1.91,1.91,0,0,0-.55,1,6.92,6.92,0,0,0-.13,1.63A5.6,5.6,0,0,0,130.65,135.94Z"/><path class="cls-1" d="M139.64,136.71v.63h-1.59v-9.9h.58v9.27Z"/><path class="cls-1" d="M146.06,131.07c.67.62,1,1.78,1,3.46v2.81h-7.43v-.63h1.3v-1.44a2.88,2.88,0,0,1,.27-1.18,2.25,2.25,0,0,1,.67-.84,1.58,1.58,0,0,1,.92-.3,1.56,1.56,0,0,1,.89.28,2.06,2.06,0,0,1,.68.82,2.67,2.67,0,0,1,.26,1.22v1.44h1.86v-2.14q0-3.8-3-3.79a10.61,10.61,0,0,0-2.22.31l0-.52.42-.14a6.86,6.86,0,0,1,.88-.2,5.83,5.83,0,0,1,1-.09A3.52,3.52,0,0,1,146.06,131.07Zm-4.18,3a1.58,1.58,0,0,0-.37,1.07v1.62h2.56V135.1a1.59,1.59,0,0,0-.37-1.08,1.11,1.11,0,0,0-.9-.45A1.15,1.15,0,0,0,141.88,134Z"/><path class="cls-1" d="M152,137.34h-1.17v.24a5,5,0,0,1-.44,2.37,1.47,1.47,0,0,1-1.36.78c-.1,0-.37,0-.81-.07v-.61l.83.06a1,1,0,0,0,.9-.61,3.84,3.84,0,0,0,.3-1.67v-7.3h.58v6.18H152Zm-1.78-9h.6v.87h-.6Z"/><path class="cls-1" d="M158.35,136.71v.63H152v-.63h4.49v-4.19a1.59,1.59,0,0,0-.32-1.09,1.13,1.13,0,0,0-.91-.38,15.81,15.81,0,0,0-2.23.33l0-.59.23,0a11.1,11.1,0,0,1,2.13-.36,1.64,1.64,0,0,1,1.2.51,2.62,2.62,0,0,1,.51,1.87v4Zm-3.48,1.72h.6v.88h-.6Z"/><path class="cls-1" d="M162.91,130.89a2.61,2.61,0,0,1,.52,1.87v4.58h-5.08v-.63h4.5v-4.19a1.6,1.6,0,0,0-.33-1.09,1.13,1.13,0,0,0-.91-.38,16,16,0,0,0-2.23.33l0-.59.23,0a11.34,11.34,0,0,1,2.13-.36A1.64,1.64,0,0,1,162.91,130.89Z"/><path class="cls-1" d="M165.11,127.44h.58v9.9h-.58Z"/><path class="cls-1" d="M104,121.63q-1.73-2.77-1.72-8.81,0-6.54,1.87-9.68A6.36,6.36,0,0,1,110,100a6.09,6.09,0,0,1,5.48,2.71q1.77,2.7,1.77,8.45l0,2H104.12a19.39,19.39,0,0,0,.53,5.39,4.89,4.89,0,0,0,1.94,2.92,6.8,6.8,0,0,0,3.83.92c.68,0,1.48,0,2.4-.07s1.77-.12,2.55-.21l1.13-.14.08,1.93a53.5,53.5,0,0,1-6.68.52C107.08,124.41,105.09,123.48,104,121.63Zm11.38-10.46q0-4.89-1.28-7A4.41,4.41,0,0,0,110,102a4.88,4.88,0,0,0-4.38,2.24c-1,1.49-1.49,3.8-1.51,6.94Z"/><path class="cls-1" d="M125.68,123.61l9.78-27.41V95.11H122.13V92.9h15.29v3.63l-9.89,27.88Z"/><path class="cls-1" d="M143.35,89.79h1.89V124h-1.89Z"/><path class="cls-1" d="M153.58,123.75a4.39,4.39,0,0,1-1.47-2.57,22.68,22.68,0,0,1-.45-5.16V102.51h-2.87v-2.08h2.87V93h1.81v7.48h6.61v2.08h-6.61v11.91a43.48,43.48,0,0,0,.19,4.83,4.54,4.54,0,0,0,.85,2.38,2.67,2.67,0,0,0,2.17.8l3.59-.38.15,2a25.48,25.48,0,0,1-4,.47A4.71,4.71,0,0,1,153.58,123.75Z"/><path class="cls-1" d="M163.59,91h1.81v3.1h-1.81Zm0,9.41h1.81V124h-1.81Z"/><path class="cls-1" d="M128.45,145.74c.06,0,0,0,0-.05S128.46,145.75,128.45,145.74Z"/><polygon class="cls-1" points="127.49 145.96 127.51 145.94 127.37 146 127.49 145.96"/><path class="cls-1" d="M126.59,146.08c.09.06.32-.06.49-.05h0l.06-.06A5.46,5.46,0,0,1,126.59,146.08Z"/><path class="cls-1" d="M126.08,146s-.1,0,.12,0h-.12Z"/><path class="cls-1" d="M126.17,146c.1,0-.06,0,0,0Z"/><path class="cls-1" d="M125.74,146l.12,0s-.14,0-.1,0C125.63,146,125.66,146,125.74,146Z"/><path class="cls-1" d="M125.62,146.11l.07,0S125.66,146.08,125.62,146.11Z"/><path class="cls-1" d="M125.82,146.05l-.13,0s0,0,.06,0S125.76,146.07,125.82,146.05Z"/><path class="cls-1" d="M125.9,146.05c.07,0,.17,0,0,0C126.18,146.06,126.14,146,125.9,146.05Z"/><path class="cls-1" d="M126.55,146.16h.1l.07,0S126.54,146.13,126.55,146.16Z"/><path class="cls-1" d="M125,146.1s0,0,0,.05l.1,0S125,146.12,125,146.1Z"/><path class="cls-1" d="M125,146.15l-.13,0C125,146.18,125,146.17,125,146.15Z"/><polygon class="cls-1" points="125.61 146.19 125.83 146.11 125.56 146.19 125.61 146.19"/><polygon class="cls-1" points="124.41 146.16 124.49 146.11 124.35 146.18 124.41 146.16"/><path class="cls-1" d="M124.06,146.2c.06,0-.08,0,0-.06a.82.82,0,0,0-.25.07A.78.78,0,0,1,124.06,146.2Z"/><path class="cls-1" d="M123.67,146.26l.12,0Z"/><path class="cls-1" d="M124.63,146.21a.15.15,0,0,0-.11,0l0,0Z"/><path class="cls-1" d="M124.58,146.22h0Z"/><path class="cls-1" d="M124.64,146.21h0Z"/><path class="cls-1" d="M125.24,146.19c-.08,0-.25.08-.08.1S125.12,146.24,125.24,146.19Z"/><path class="cls-1" d="M124.72,146.26h.15s0,0,0,0Z"/><polygon class="cls-1" points="124.65 146.28 124.72 146.26 124.66 146.26 124.65 146.28"/><path class="cls-1" d="M123.93,146.27a.65.65,0,0,1-.21,0l.25,0S124,146.26,123.93,146.27Z"/><path class="cls-1" d="M124.24,146.25h0Z"/><polygon class="cls-1" points="122.94 146.4 122.95 146.41 122.95 146.4 122.94 146.4"/><path class="cls-1" d="M124,146.31a.29.29,0,0,0,.14,0l-.16,0S124,146.32,124,146.31Z"/><path class="cls-1" d="M123.45,146.3l.12,0S123.47,146.29,123.45,146.3Z"/><path class="cls-1" d="M124.21,146.25h0S124.2,146.24,124.21,146.25Z"/><path class="cls-1" d="M124.21,146.25a.15.15,0,0,0-.08,0l.1,0Z"/><path class="cls-1" d="M122.73,146.69s.17-.09.32-.06,0-.16-.1-.23,0,0-.14.08c0,0,.33,0,.21.06s-.16,0-.26,0c.08,0-.24.1-.19.17l.17,0S122.68,146.69,122.73,146.69Z"/><path class="cls-1" d="M123.23,146.38h.06l-.21,0c-.1,0-.12,0-.13.06l.3,0Z"/><path class="cls-1" d="M123.56,146.34s-.18.08-.09.12.12-.05.22-.08c-.28,0,.08,0-.13,0l.16,0h-.14s0,0,0,0h0s0,0,0,0,0,0,0,0h0l-.28.05Z"/><path class="cls-1" d="M125,146.4a0,0,0,0,1,0,0S125,146.4,125,146.4Z"/><path class="cls-1" d="M124.9,146.39a.14.14,0,0,1,.1,0c.06,0,0,0,0,0s.14,0,0,0h0a.67.67,0,0,1-.25,0A.49.49,0,0,0,124.9,146.39Z"/><path class="cls-1" d="M124.22,146.38l-.23,0,.12,0v0C124.24,146.42,124.21,146.4,124.22,146.38Z"/><polygon class="cls-1" points="122.91 146.38 122.94 146.33 122.81 146.41 122.91 146.38"/><polygon class="cls-1" points="122.6 146.42 122.61 146.38 122.53 146.41 122.6 146.42"/><path class="cls-1" d="M105.07,146.44h0Z"/><path class="cls-1" d="M105.57,146.54h0S105.55,146.54,105.57,146.54Z"/><path class="cls-1" d="M115,146.84c-.11,0-.22-.09-.21-.05l0,.05Z"/><path class="cls-1" d="M109.75,146.89l0,0,.08,0Z"/><path class="cls-1" d="M109.67,147.06l-.14,0Z"/><path class="cls-1" d="M102.33,145.84h-.09C102.37,145.89,102.32,145.85,102.33,145.84Z"/><path class="cls-1" d="M119.43,146.69h-.22C119.32,146.7,119.4,146.73,119.43,146.69Z"/><path class="cls-1" d="M105.36,146h0Z"/><path class="cls-1" d="M119,146.69h0l.21,0A.46.46,0,0,0,119,146.69Z"/><path class="cls-1" d="M93.09,141.66v0S93.08,141.65,93.09,141.66Z"/><path class="cls-1" d="M91,139.57l.1.07Z"/><path class="cls-1" d="M121.35,146.51c.07,0,0,0,0,0Z"/><path class="cls-1" d="M121.69,146.65s0,0,0,0Z"/><path class="cls-1" d="M118.31,147Z"/><path class="cls-1" d="M121.45,146.52h0Z"/><path class="cls-1" d="M121.44,146.5h0Z"/><path class="cls-1" d="M121.26,146.52h0Z"/><path class="cls-1" d="M97.94,144.12h0Z"/><polygon class="cls-1" points="113.26 147.28 113.27 147.27 113.26 147.27 113.26 147.28"/><path class="cls-1" d="M113,147.3a.33.33,0,0,1,.23,0l-.07-.12Z"/><path class="cls-1" d="M103.87,146.19l.15.08c-.21,0-.35,0-.21,0,.06-.13.64.13.7,0l.1.05h-.07c.2.11.18-.05.44,0,.1,0,.16.06.09.06h.22c.06,0,0,0,0,0l.32.05h0a.76.76,0,0,1,.21,0c.08,0,0,0,0,0H106c.07,0-.09.05-.21,0,.14.16.15,0,.5.14h-.17c.1.09.23.08.42.16,0,0-.37-.18-.17-.18a.56.56,0,0,0,.24,0s.09.06.22.07l0,.07a.56.56,0,0,0,.23,0,.3.3,0,0,1,.21.13c.24,0-.16-.1.13-.07a1.91,1.91,0,0,0,.6,0c.15,0,0,0,0,.06l.14,0s0,0,0,0,0-.06.19,0,.34.14.56.08c0,0,0,0,0,.07l.5-.06.19.06c-.14-.06,0-.1.22-.13l-.12-.07h.27s0,0,0,.06h0c.09,0,0,.06,0,.09l-.09,0c-.07,0-.13.06-.12.1h.09s0,0,0,0l.08,0,0,.08,0,0,.34.07a3.68,3.68,0,0,1,.88-.14c-.11,0,0,.09,0,.15s-.31,0-.51,0c.11,0,.08,0,0,0l.37,0c0,.05.08.05.17.07-.07-.1.28,0,.43-.07s0,.06-.21.05c.19.08.26-.11.45,0a.11.11,0,0,0-.08,0c.1,0,.35,0,.29,0h0a2.35,2.35,0,0,0,.94-.05.45.45,0,0,1-.06.12l.53-.27c0,.07.13.25-.12.28a.73.73,0,0,0,.31,0s-.12-.11-.06-.11a2.08,2.08,0,0,0,.35.11c-.07,0,0-.13.12-.12s0,.11,0,.12l.28-.11c-.07,0,0,.1.05.13a2.38,2.38,0,0,1,.32,0l-.12,0c.32,0,.31-.16.63-.16,0,0-.1.15.07.16a1.4,1.4,0,0,1,.59-.33l.06,0,.21,0a4.15,4.15,0,0,1-.7.35c.12,0,0,0,.21,0s-.1.05-.15.05l.41,0c0-.07.32-.07.3-.13l-.45.08c0-.07.26-.19.56-.19.07,0-.06.12,0,.14a1.13,1.13,0,0,1,.3,0l-.12,0c.16,0,.26-.09.46,0s.21.08.22,0-.14-.31-.07-.37a3.34,3.34,0,0,1,.43.09c.12.06-.16.15-.06.2s.06,0,.09-.05,0,.06.13,0,.31,0,.07-.06c.15,0,.16,0,.34,0-.06,0,.15-.16.3-.19,0,0,0,0,0,.05.31,0,.48,0,.77,0,0,0,.17,0,.11.06a.47.47,0,0,1,.17,0c.17,0-.2,0-.07.08s.23-.07.36-.1c-.05-.06-.3,0-.42,0s.21-.19.5-.25.11.05.15,0c.45,0,.37-.18.75-.15.15.05,0,.11.05.15-.19,0-.3,0-.43,0h.16a.74.74,0,0,1-.26,0c.13,0,.76,0,1.11,0,.06,0,.17-.05.11-.07l-.1,0c-.11,0,.2-.08.06-.09a1.46,1.46,0,0,1,.51-.09l0,.05a.38.38,0,0,0-.19,0c.08,0,.32.06.41,0l-.15,0a1.91,1.91,0,0,1,.51-.12c-.09-.06,0,0-.18-.05.12.08-.47,0-.28.11-.14-.07-.23,0-.41-.07,0,0,.06,0-.09,0l0,0h0l.08,0a2.92,2.92,0,0,1-.4.1c-.09,0,0,0,0,0l-.12,0s-.25-.05,0-.09h-.2a.86.86,0,0,0-.36,0c-.1,0-.23.07-.15,0l-.31,0h0a4.26,4.26,0,0,1-1,0,1.66,1.66,0,0,1-.37,0l0,0c-.13,0-.39,0-.44,0s-.63,0-.86,0v.05c-.15,0-.3,0-.5,0l0,0a5.4,5.4,0,0,1-.7,0,.18.18,0,0,1,.13,0c-.32-.09-.67.08-1,0h-.18l-.1,0,.08,0-.22,0,0,0h0c-.09,0-.07,0,0,.06s-.08,0-.1,0-.22,0-.31-.06-.41,0-.46.11,0,0,0,0a.82.82,0,0,0-.27,0l0-.06-.2.08c-.12,0-.17-.06,0-.11-.29.07-.23,0-.48.09v0c-.09,0-.23.05-.29,0s-1-.05-1.48-.15c.09.12-.23-.07-.26,0s-.1-.05,0-.07c-.26,0-.39-.07-.57,0s.06,0,0-.05a.4.4,0,0,1-.11,0s0,0,.08,0c-.26,0-.3.06-.32.14a.35.35,0,0,0-.3,0s-.12-.06,0-.05c-.09,0-.56-.1-.57,0a.29.29,0,0,0-.16,0l-.42,0,0,0c-.09.06-.17,0-.33,0h0c-.37-.1-.16,0-.53-.1l0,.05c-.05.09-.32-.1-.54-.1l.07,0c-.12,0-.3-.19-.42-.22s0,0,.08,0c-.3-.11,0,.06-.28,0,0,0,.07-.07-.08-.1s-.47,0-.66-.07c0,0,.08.07,0,.07s-.42-.18-.58-.13,0,0,0,0a2.74,2.74,0,0,0-.49,0c-.08-.19-.78-.1-.74-.24l-.38-.08v0a.85.85,0,0,0-.42,0c-.06,0,0,0,0,0a1.46,1.46,0,0,0-.69-.13l0-.06a6.6,6.6,0,0,0-.83-.26h0c-.4,0-.86-.42-1.06-.3l-.26,0c.32.12-.08.06,0,.13-.13,0-.32-.16-.16-.11h0c.08-.06-.39-.17-.36-.23-.63-.22-1.22-.51-1.8-.76l0,.1-.2-.09c-.05,0-.05-.08.09,0,0-.07-.25-.07-.26-.06-.27-.15.14,0,.06-.07l-.12,0,0,0a.7.7,0,0,1-.29-.08c-.11-.06,0-.06-.08-.09l-.07,0-.24-.12.07.1c-.12,0-.23-.11-.14,0a8.88,8.88,0,0,0-1-.57,2.18,2.18,0,0,1-.51-.22s0,.11-.11,0c.12-.09-.26-.22-.34-.37.08.12-.46-.24-.33-.06-.12-.09,0-.05-.06-.13a10.32,10.32,0,0,1-1-.66s0,.07-.06,0l-.15-.2c-.08,0-.12,0-.22-.1,0,0,0,.06,0,0a15.46,15.46,0,0,1-2.09-1.63c.07.11,0,.06-.06,0s0,0,0,.06l-.24-.28c-.1,0-.31-.25-.38-.22l.09.06c-.16,0,.07.27,0,.33.19,0,.28.39.58.47,0,.06-.06,0,0,0a.63.63,0,0,1,.28.17h0c.37.27.51.42.91.75V141a.61.61,0,0,1,.14.13c.15,0-.26-.18-.11-.18.06.16.64.44.66.59s0-.08.13,0l0,.05h.06c.09.07.12.13.11.16a.31.31,0,0,0-.1-.05c.1.11.36.2.39.24l-.13-.1a13,13,0,0,0,1.3.73l0,0c.32.14.23.16.57.33h0a.63.63,0,0,1,.26.11c-.09,0,.14.12,0,.09a.84.84,0,0,0,.44.09l0,.06a.59.59,0,0,1,.28.08c-.15-.05.08.1-.09.06.31.25.56.19.67.37.21,0-.28-.19-.18-.17-.06-.06.17,0,.27.06s.14.21.43.34l-.06,0c.1.07.23.06.34.16s.17.09.23,0l-.28-.1a1.77,1.77,0,0,1,.57.17.34.34,0,0,1-.16,0c.06.06.15,0,.21.1s-.33-.11-.52-.13c.07.07.34.08.22.12.16-.05.28.13.51.14l0,0a.68.68,0,0,1,.17,0h-.13c.18,0,.29.17.46.21-.33-.13,0-.08-.18-.17.43.11.19.21.65.36-.06,0-.22-.12-.12-.1a1.27,1.27,0,0,1,.24.14c.3.11,0-.06.11,0s.15,0,.29.07l0,0c.34.16.13,0,.43.09l-.16,0,.17,0,0,0a1.16,1.16,0,0,1,.41.13s.05-.08.2,0-.07,0,.15.09a.2.2,0,0,1-.2,0l-.08,0a1.77,1.77,0,0,0,.36.13l-.08,0,.34,0s0,0-.05,0a1,1,0,0,1,.22,0s0,.07-.18,0l.31.05s.15.09.1.1c.16.07.44,0,.65.14h.09a2.47,2.47,0,0,0,.65.18l.13.1c.2,0-.17-.14.16-.08s.07.08.15.12a1,1,0,0,1,.54.08A1.29,1.29,0,0,1,103.87,146.19Zm2.46.47s-.15,0-.18,0S106.25,146.63,106.33,146.66Zm3.78.35a.29.29,0,0,1-.15,0Zm10.53-.4h0C120.52,146.6,120.56,146.6,120.64,146.61Zm.22,0s0,0,0,0l-.12,0S120.79,146.63,120.86,146.61Zm-23.43-3.07,0,0C97.37,143.54,97.4,143.54,97.43,143.54Z"/><path class="cls-1" d="M109.68,147s0,0,0,0S109.64,147,109.68,147Z"/><path class="cls-1" d="M102.35,145.83h0Z"/><path class="cls-1" d="M117.43,147.23a.17.17,0,0,1-.09,0S117.36,147.23,117.43,147.23Z"/><path class="cls-1" d="M122,146.43l-.14,0H122S122,146.43,122,146.43Z"/><path class="cls-1" d="M123.29,146.61l.07,0v0C123.26,146.58,123.2,146.61,123.29,146.61Z"/><path class="cls-1" d="M122.18,146.58s.1,0,.2,0h0C122.39,146.52,122.28,146.55,122.18,146.58Z"/><path class="cls-1" d="M122.4,146.57h.09S122.46,146.56,122.4,146.57Z"/><path class="cls-1" d="M121.14,146.56s0-.05,0,0S120.88,146.61,121.14,146.56Z"/><polygon class="cls-1" points="122.27 146.7 122.23 146.66 122.18 146.7 122.27 146.7"/><path class="cls-1" d="M121.48,146.74h.16s0,0,0,0S121.47,146.72,121.48,146.74Z"/><path class="cls-1" d="M121.68,146.71h0Z"/><polygon class="cls-1" points="122.05 146.74 122 146.73 121.89 146.74 122.05 146.74"/><path class="cls-1" d="M119.76,146.86l-.17,0s0,0,.09,0S119.79,146.88,119.76,146.86Z"/><path class="cls-1" d="M120.3,147l-.08,0V147Z"/><path class="cls-1" d="M119.79,147s-.25.07,0,.05C119.78,147,120,147,119.79,147Z"/><polygon class="cls-1" points="117.15 147.07 117.2 147.07 117.19 146.97 117.15 147.07"/><path class="cls-1" d="M114.83,147.36c.21,0,0-.06.24,0s-.16,0-.11-.05C114.84,147.31,114.77,147.3,114.83,147.36Z"/><path class="cls-1" d="M115,147.28h0Z"/><polygon class="cls-1" points="90.63 139.22 90.54 139.12 90.58 139.2 90.63 139.22"/><path class="cls-1" d="M90.38,139.12l0-.07h-.1A.2.2,0,0,1,90.38,139.12Z"/><path class="cls-1" d="M106.68,146.85v0s0,0-.11,0Z"/><polygon class="cls-1" points="104.89 146.47 104.92 146.48 104.88 146.41 104.89 146.47"/><path class="cls-1" d="M103.38,146.21l.2,0C103.44,146.22,103.38,146.13,103.38,146.21Z"/><path class="cls-1" d="M85.75,132.39l-.17.33a.13.13,0,0,0,0,.19.14.14,0,0,0,.19,0l.18-.33a.26.26,0,0,1,.34-.1l-1.29,2.34a.84.84,0,0,0,.33,1.15l.44.24a1.13,1.13,0,0,0,2,1.08l1.31.73a1.12,1.12,0,0,0,.5,1.4,1.13,1.13,0,0,0,1.46-.32l.29.16a.84.84,0,0,0,1.15-.33L94.06,136a.85.85,0,0,0-.33-1.15l-6-3.3a.85.85,0,0,0-1.1.26s0,0-.2.34A.54.54,0,0,0,85.75,132.39Zm6,4.05-.57-.31.67-1.21.48.27a.45.45,0,0,1,.21.52l-.15.47A.44.44,0,0,1,91.76,136.44ZM89.4,138a.85.85,0,0,1,1.48.82.86.86,0,0,1-1.15.33A.84.84,0,0,1,89.4,138Zm.91-3.91,1.3.71L90.94,136l-1.29-.72Zm-2.52.18.67-1.21,1.6.89-.66,1.21Zm.26,1,.25.13a.16.16,0,0,1,.06.2.16.16,0,0,1-.2.05l-.24-.14a.14.14,0,1,1,.13-.24Zm-1.92.93a.85.85,0,0,1,1.48.82.85.85,0,0,1-1.15.33A.84.84,0,0,1,86.13,136.17Zm-.53-1.82.4.22a.14.14,0,0,1,.06.19.15.15,0,0,1-.19.06l-.4-.23Zm1.22-2.21,1.39.77-.66,1.2-1.39-.77.42-.77.39.21a.14.14,0,1,0,.14-.24l-.39-.22Z"/></svg>